<svg width="143" height="98" viewBox="0 0 143 98" fill="none" xmlns="http://www.w3.org/2000/svg">
<circle cx="38" cy="42" r="13" fill="#323232"/>
<circle cx="108" cy="42" r="13" fill="#323232"/>
<path d="M93.1282 75.6571C96.9234 75.6571 100.101 78.8348 98.7082 82.3652C98.4627 82.9878 98.1827 83.6024 97.8686 84.2074C96.4615 86.9181 94.399 89.3812 91.799 91.4559C89.1989 93.5307 86.1123 95.1764 82.7151 96.2992C79.318 97.4221 75.677 98 72 98C68.323 98 64.682 97.4221 61.2849 96.2992C57.8877 95.1764 54.801 93.5307 52.201 91.4559C49.601 89.3812 47.5385 86.9181 46.1314 84.2074C45.8439 83.6535 45.5848 83.0915 45.3547 82.5228C43.8124 78.7115 46.8885 75 51 75C51.8078 75 52.5643 75.0268 53.2574 75.0696C55.9089 75.2332 57.605 77.6527 58.8289 80.0105C59.5453 81.3907 60.5954 82.6448 61.9193 83.7012C63.2431 84.7575 64.8147 85.5955 66.5443 86.1672C68.274 86.7388 70.1278 87.0331 72 87.0331C73.8722 87.0331 75.726 86.7388 77.4557 86.1672C79.1853 85.5955 80.7569 84.7575 82.0807 83.7012C83.4046 82.6448 84.4547 81.3907 85.1711 80.0105C86.3238 77.79 88.2849 75.6571 90.7867 75.6571C91.7039 75.6571 92.5601 75.6571 93.1282 75.6571Z" fill="#323232"/>
<path d="M38 10.1667C38 10.1667 28.1163 5.98643 16.2558 13.4513C5.42879 20.2657 4 27 4 27" stroke="#323232" stroke-width="8" stroke-linecap="round"/>
<path d="M138.496 29.2752C138.496 29.2752 136.694 18.6961 124.017 12.7237C112.444 7.27167 106 9.69502 106 9.69502" stroke="#323232" stroke-width="8" stroke-linecap="round"/>
</svg>
