<svg width="143" height="100" viewBox="0 0 143 100" fill="none" xmlns="http://www.w3.org/2000/svg">
<circle cx="38" cy="42" r="13" fill="#323232"/>
<circle cx="108" cy="42" r="13" fill="#323232"/>
<path d="M97 66C102.523 66 107.142 70.5755 105.5 75.8484C105.166 76.9187 104.778 77.9743 104.336 79.0112C102.577 83.1363 99.9988 86.8844 96.7487 90.0416C93.4987 93.1988 89.6403 95.7032 85.3939 97.4119C81.1475 99.1206 76.5963 100 72 100C67.4037 100 62.8525 99.1206 58.6061 97.4119C54.3597 95.7032 50.5013 93.1988 47.2513 90.0416C44.0012 86.8844 41.4231 83.1363 39.6642 79.0112C39.2221 77.9743 38.8339 76.9187 38.5005 75.8484C36.8578 70.5755 41.4772 66 47 66L72 66H97Z" fill="#323232"/>
<path d="M51 66H62V72.5C62 75.5376 59.5376 78 56.5 78C53.4624 78 51 75.5376 51 72.5V66Z" fill="white"/>
<path d="M66 66H77V72.5C77 75.5376 74.5376 78 71.5 78C68.4624 78 66 75.5376 66 72.5V66Z" fill="white"/>
<path d="M81 66H92V72.5C92 75.5376 89.5376 78 86.5 78C83.4624 78 81 75.5376 81 72.5V66Z" fill="white"/>
<path d="M38 10.1667C38 10.1667 28.1163 5.98643 16.2558 13.4513C5.42879 20.2657 4 27 4 27" stroke="#323232" stroke-width="8" stroke-linecap="round"/>
<path d="M138.496 29.2752C138.496 29.2752 136.694 18.6961 124.017 12.7237C112.444 7.27167 106 9.69502 106 9.69502" stroke="#323232" stroke-width="8" stroke-linecap="round"/>
</svg>
