<svg width="148" height="88" viewBox="0 0 148 88" fill="none" xmlns="http://www.w3.org/2000/svg">
<circle cx="40" cy="41" r="13" fill="#323232"/>
<circle cx="110" cy="41" r="13" fill="#323232"/>
<path d="M52.8718 87.3429C49.0766 87.3429 45.8992 84.1652 47.2918 80.6348C47.5373 80.0122 47.8173 79.3976 48.1314 78.7926C49.5385 76.0819 51.601 73.6188 54.201 71.5441C56.8011 69.4693 59.8877 67.8236 63.2849 66.7008C66.682 65.5779 70.323 65 74 65C77.677 65 81.318 65.5779 84.7151 66.7008C88.1123 67.8236 91.199 69.4693 93.799 71.5441C96.399 73.6188 98.4615 76.0819 99.8686 78.7926C100.156 79.3465 100.415 79.9085 100.645 80.4772C102.188 84.2885 99.1115 88 95 88C94.1922 88 93.4357 87.9732 92.7426 87.9304C90.0911 87.7668 88.395 85.3473 87.1711 82.9895C86.4547 81.6093 85.4046 80.3552 84.0807 79.2988C82.7569 78.2425 81.1853 77.4045 79.4557 76.8328C77.726 76.2612 75.8722 75.9669 74 75.9669C72.1278 75.9669 70.274 76.2612 68.5443 76.8328C66.8147 77.4045 65.2431 78.2425 63.9193 79.2988C62.5954 80.3552 61.5453 81.6093 60.8289 82.9895C59.6762 85.21 57.7151 87.3429 55.2133 87.3429C54.2961 87.3429 53.4399 87.3429 52.8718 87.3429Z" fill="#323232"/>
<path d="M4.54834 20.917C4.54834 20.917 14.4321 25.0973 26.2925 17.6325C37.1195 10.818 38.5483 4.08374 38.5483 4.08374" stroke="#323232" stroke-width="8" stroke-linecap="round"/>
<path d="M144 20.8333C144 20.8333 134.116 25.0136 122.256 17.5487C111.429 10.7343 110 4 110 4" stroke="#323232" stroke-width="8" stroke-linecap="round"/>
</svg>
